{
  "accessors": [
    {
      "bufferView": 2,
      "componentType": 5126,
      "count": 4997,
      "max": [
        2.7332799434661865,
        2.184530019760132,
        0.6543480157852173
      ],
      "min": [
        -1.292559027671814,
        -2.184530019760132,
        -0.42291200160980225
      ],
      "type": "VEC3"
    },
    {
      "bufferView": 2,
      "byteOffset": 59964,
      "componentType": 5126,
      "count": 4997,
      "max": [
        0.9999985694885254,
        1.0,
        1.0
      ],
      "min": [
        -0.9999985694885254,
        -1.0,
        -1.0
      ],
      "type": "VEC3"
    },
    {
      "bufferView": 3,
      "componentType": 5126,
      "count": 4997,
      "max": [
        0.9999721050262451,
        0.9999987483024597,
        0.9998204112052917,
        1.0
      ],
      "min": [
        -0.9999998807907104,
        -0.9767950177192688,
        -0.9984720945358276,
        -1.0
      ],
      "type": "VEC4"
    },
    {
      "bufferView": 1,
      "componentType": 5126,
      "count": 4997,
      "max": [
        0.9928810000419617,
        0.9947550296783447
      ],
      "min": [
        0.007992999628186226,
        0.0025649999734014273
      ],
      "type": "VEC2"
    },
    {
      "bufferView": 0,
      "componentType": 5125,
      "count": 23298,
      "type": "SCALAR"
    }
  ],
  "asset": {
    "extras": {
      "author": "Vlad model's (https://sketchfab.com/a3flife)",
      "license": "CC-BY-4.0 (http://creativecommons.org/licenses/by/4.0/)",
      "source": "https://sketchfab.com/3d-models/dinghy-92b24c2f8b874360ab84bf0e881883fe",
      "title": "Dinghy"
    },
    "generator": "Sketchfab-15.37.0",
    "version": "2.0"
  },
  "bufferViews": [
    {
      "buffer": 0,
      "byteLength": 93192,
      "name": "floatBufferViews",
      "target": 34963
    },
    {
      "buffer": 0,
      "byteLength": 39976,
      "byteOffset": 93192,
      "byteStride": 8,
      "name": "floatBufferViews",
      "target": 34962
    },
    {
      "buffer": 0,
      "byteLength": 119928,
      "byteOffset": 133168,
      "byteStride": 12,
      "name": "floatBufferViews",
      "target": 34962
    },
    {
      "buffer": 0,
      "byteLength": 79952,
      "byteOffset": 253096,
      "byteStride": 16,
      "name": "floatBufferViews",
      "target": 34962
    }
  ],
  "buffers": [
    {
      "byteLength": 333048,
      "uri": "scene.bin"
    }
  ],
  "images": [
    {
      "uri": "textures/Dinghy_baseColor.png"
    },
    {
      "uri": "textures/Dinghy_metallicRoughness.png"
    },
    {
      "uri": "textures/Dinghy_normal.png"
    }
  ],
  "materials": [
    {
      "doubleSided": true,
      "name": "Dinghy",
      "normalTexture": {
        "index": 2
      },
      "occlusionTexture": {
        "index": 1
      },
      "pbrMetallicRoughness": {
        "baseColorTexture": {
          "index": 0
        },
        "metallicRoughnessTexture": {
          "index": 1
        }
      }
    }
  ],
  "meshes": [
    {
      "name": "Object_0",
      "primitives": [
        {
          "attributes": {
            "NORMAL": 1,
            "POSITION": 0,
            "TANGENT": 2,
            "TEXCOORD_0": 3
          },
          "indices": 4,
          "material": 0,
          "mode": 4
        }
      ]
    }
  ],
  "nodes": [
    {
      "children": [
        1
      ],
      "matrix": [
        1.0,
        0.0,
        0.0,
        0.0,
        0.0,
        2.220446049250313e-16,
        -1.0,
        0.0,
        0.0,
        1.0,
        2.220446049250313e-16,
        0.0,
        0.0,
        0.0,
        0.0,
        1.0
      ],
      "name": "Sketchfab_model"
    },
    {
      "children": [
        2
      ],
      "name": "Dinghy.obj.cleaner.materialmerger.gles"
    },
    {
      "mesh": 0,
      "name": "Object_2"
    }
  ],
  "samplers": [
    {
      "magFilter": 9729,
      "minFilter": 9987,
      "wrapS": 10497,
      "wrapT": 10497
    }
  ],
  "scene": 0,
  "scenes": [
    {
      "name": "Sketchfab_Scene",
      "nodes": [
        0
      ]
    }
  ],
  "textures": [
    {
      "sampler": 0,
      "source": 0
    },
    {
      "sampler": 0,
      "source": 1
    },
    {
      "sampler": 0,
      "source": 2
    }
  ]
}
