{
  "accessors": [
    {
      "bufferView": 2,
      "componentType": 5126,
      "count": 136,
      "max": [
        14.92828369140625,
        61.411102294921875,
        13.508914947509766
      ],
      "min": [
        -14.928314208984375,
        -61.41108703613281,
        -13.508914947509766
      ],
      "type": "VEC3"
    },
    {
      "bufferView": 2,
      "byteOffset": 1632,
      "componentType": 5126,
      "count": 136,
      "max": [
        1.0,
        0.9999998211860657,
        1.0
      ],
      "min": [
        -1.0,
        -1.0,
        -1.0
      ],
      "type": "VEC3"
    },
    {
      "bufferView": 3,
      "componentType": 5126,
      "count": 136,
      "max": [
        1.0,
        0.9997091293334961,
        1.0,
        1.0
      ],
      "min": [
        -1.0,
        -0.997346043586731,
        -1.0,
        -1.0
      ],
      "type": "VEC4"
    },
    {
      "bufferView": 1,
      "componentType": 5126,
      "count": 136,
      "max": [
        0.9990234375,
        0.7752479910850525
      ],
      "min": [
        0.0009765625,
        0.0009765625
      ],
      "type": "VEC2"
    },
    {
      "bufferView": 0,
      "componentType": 5125,
      "count": 252,
      "type": "SCALAR"
    }
  ],
  "asset": {
    "extras": {
      "author": "RubaQewar (https://sketchfab.com/RubaQewar)",
      "license": "CC-BY-4.0 (http://creativecommons.org/licenses/by/4.0/)",
      "source": "https://sketchfab.com/3d-models/wooden-pole-cdecedc60b6d44d3b8f74eb11fa7e565",
      "title": "Wooden Pole"
    },
    "generator": "Sketchfab-12.65.0",
    "version": "2.0"
  },
  "bufferViews": [
    {
      "buffer": 0,
      "byteLength": 1008,
      "name": "floatBufferViews",
      "target": 34963
    },
    {
      "buffer": 0,
      "byteLength": 1088,
      "byteOffset": 1008,
      "byteStride": 8,
      "name": "floatBufferViews",
      "target": 34962
    },
    {
      "buffer": 0,
      "byteLength": 3264,
      "byteOffset": 2096,
      "byteStride": 12,
      "name": "floatBufferViews",
      "target": 34962
    },
    {
      "buffer": 0,
      "byteLength": 2176,
      "byteOffset": 5360,
      "byteStride": 16,
      "name": "floatBufferViews",
      "target": 34962
    }
  ],
  "buffers": [
    {
      "byteLength": 7536,
      "uri": "scene.bin"
    }
  ],
  "images": [
    {
      "uri": "textures/unwrapChekcerShader_baseColor.png"
    },
    {
      "uri": "textures/unwrapChekcerShader_metallicRoughness.png"
    },
    {
      "uri": "textures/unwrapChekcerShader_normal.png"
    }
  ],
  "materials": [
    {
      "doubleSided": true,
      "name": "unwrapChekcerShader",
      "normalTexture": {
        "index": 2
      },
      "occlusionTexture": {
        "index": 1
      },
      "pbrMetallicRoughness": {
        "baseColorTexture": {
          "index": 0
        },
        "metallicRoughnessTexture": {
          "index": 1
        }
      }
    }
  ],
  "meshes": [
    {
      "name": "polySurface40_unwrapChekcerShader_0",
      "primitives": [
        {
          "attributes": {
            "NORMAL": 1,
            "POSITION": 0,
            "TANGENT": 2,
            "TEXCOORD_0": 3
          },
          "indices": 4,
          "material": 0,
          "mode": 4
        }
      ]
    }
  ],
  "nodes": [
    {
      "children": [
        1
      ],
      "matrix": [
        1.0,
        0.0,
        0.0,
        0.0,
        0.0,
        2.220446049250313e-16,
        -1.0,
        0.0,
        0.0,
        1.0,
        2.220446049250313e-16,
        0.0,
        0.0,
        0.0,
        0.0,
        1.0
      ],
      "name": "Sketchfab_model"
    },
    {
      "children": [
        2
      ],
      "matrix": [
        1.0,
        0.0,
        0.0,
        0.0,
        0.0,
        0.0,
        1.0,
        0.0,
        0.0,
        -1.0,
        0.0,
        0.0,
        0.0,
        0.0,
        0.0,
        1.0
      ],
      "name": "485f3e8cc00543f7913ff2cce7ba4d7c.fbx"
    },
    {
      "children": [
        3
      ],
      "name": "RootNode"
    },
    {
      "children": [
        4
      ],
      "name": "polySurface40"
    },
    {
      "mesh": 0,
      "name": "polySurface40_unwrapChekcerShader_0"
    }
  ],
  "samplers": [
    {
      "magFilter": 9729,
      "minFilter": 9987,
      "wrapS": 10497,
      "wrapT": 10497
    }
  ],
  "scene": 0,
  "scenes": [
    {
      "name": "Sketchfab_Scene",
      "nodes": [
        0
      ]
    }
  ],
  "textures": [
    {
      "sampler": 0,
      "source": 0
    },
    {
      "sampler": 0,
      "source": 1
    },
    {
      "sampler": 0,
      "source": 2
    }
  ]
}
