{
  "accessors": [
    {
      "bufferView": 2,
      "componentType": 5126,
      "count": 65532,
      "max": [
        0.1131582111120224,
        0.09043735265731812,
        0.39618706703186035
      ],
      "min": [
        -0.09179255366325378,
        -0.07158902287483215,
        -2.9802322387695313e-08
      ],
      "type": "VEC3"
    },
    {
      "bufferView": 2,
      "byteOffset": 786384,
      "componentType": 5126,
      "count": 65532,
      "max": [
        0.9999902844429016,
        0.9999989867210388,
        0.9999901056289673
      ],
      "min": [
        -0.999780535697937,
        -0.999995231628418,
        -0.9999502897262573
      ],
      "type": "VEC3"
    },
    {
      "bufferView": 1,
      "componentType": 5126,
      "count": 65532,
      "max": [
        0.9988982081413269,
        0.9987791776657104
      ],
      "min": [
        0.000244140625,
        0.0002590013900771737
      ],
      "type": "VEC2"
    },
    {
      "bufferView": 1,
      "byteOffset": 524256,
      "componentType": 5126,
      "count": 65532,
      "max": [
        0.9988982081413269,
        0.9987791776657104
      ],
      "min": [
        0.000244140625,
        0.0002590013900771737
      ],
      "type": "VEC2"
    },
    {
      "bufferView": 0,
      "componentType": 5125,
      "count": 353079,
      "type": "SCALAR"
    },
    {
      "bufferView": 2,
      "byteOffset": 1572768,
      "componentType": 5126,
      "count": 46666,
      "max": [
        0.11236382275819778,
        0.09363985061645508,
        0.39618706703186035
      ],
      "min": [
        -0.0914604663848877,
        -0.07158902287483215,
        -2.9802322387695313e-08
      ],
      "type": "VEC3"
    },
    {
      "bufferView": 2,
      "byteOffset": 2132760,
      "componentType": 5126,
      "count": 46666,
      "max": [
        0.9976540803909302,
        0.9999989867210388,
        0.9998152852058411
      ],
      "min": [
        -0.9999887347221375,
        -0.999992847442627,
        -0.999856173992157
      ],
      "type": "VEC3"
    },
    {
      "bufferView": 1,
      "byteOffset": 1048512,
      "componentType": 5126,
      "count": 46666,
      "max": [
        0.9994341135025024,
        0.9949401021003723
      ],
      "min": [
        0.000244140625,
        0.0002609683433547616
      ],
      "type": "VEC2"
    },
    {
      "bufferView": 1,
      "byteOffset": 1421840,
      "componentType": 5126,
      "count": 46666,
      "max": [
        0.9994341135025024,
        0.9949401021003723
      ],
      "min": [
        0.000244140625,
        0.0002609683433547616
      ],
      "type": "VEC2"
    },
    {
      "bufferView": 0,
      "byteOffset": 1412316,
      "componentType": 5125,
      "count": 231177,
      "type": "SCALAR"
    }
  ],
  "asset": {
    "extras": {
      "author": "gaja (https://sketchfab.com/gaja3d)",
      "license": "CC-BY-4.0 (http://creativecommons.org/licenses/by/4.0/)",
      "source": "https://sketchfab.com/3d-models/wood-pole-7ba50679112b43f8bbd31924df16df02",
      "title": "Wood Pole"
    },
    "generator": "Sketchfab-15.37.0",
    "version": "2.0"
  },
  "bufferViews": [
    {
      "buffer": 0,
      "byteLength": 2337024,
      "name": "floatBufferViews",
      "target": 34963
    },
    {
      "buffer": 0,
      "byteLength": 1795168,
      "byteOffset": 2337024,
      "byteStride": 8,
      "name": "floatBufferViews",
      "target": 34962
    },
    {
      "buffer": 0,
      "byteLength": 2692752,
      "byteOffset": 4132192,
      "byteStride": 12,
      "name": "floatBufferViews",
      "target": 34962
    }
  ],
  "buffers": [
    {
      "byteLength": 6824944,
      "uri": "scene.bin"
    }
  ],
  "extensionsUsed": [
    "KHR_materials_unlit"
  ],
  "images": [
    {
      "uri": "textures/tex_u1_v1_baseColor.jpeg"
    }
  ],
  "materials": [
    {
      "doubleSided": true,
      "extensions": {
        "KHR_materials_unlit": {}
      },
      "name": "tex_u1_v1",
      "pbrMetallicRoughness": {
        "baseColorTexture": {
          "index": 0
        },
        "metallicFactor": 0.0
      }
    }
  ],
  "meshes": [
    {
      "name": "model_tex_u1_v1_0",
      "primitives": [
        {
          "attributes": {
            "NORMAL": 1,
            "POSITION": 0,
            "TEXCOORD_0": 2,
            "TEXCOORD_1": 3
          },
          "indices": 4,
          "material": 0,
          "mode": 4
        }
      ]
    },
    {
      "name": "model_tex_u1_v1_0",
      "primitives": [
        {
          "attributes": {
            "NORMAL": 6,
            "POSITION": 5,
            "TEXCOORD_0": 7,
            "TEXCOORD_1": 8
          },
          "indices": 9,
          "material": 0,
          "mode": 4
        }
      ]
    }
  ],
  "nodes": [
    {
      "children": [
        1
      ],
      "matrix": [
        1.0,
        0.0,
        0.0,
        0.0,
        0.0,
        2.220446049250313e-16,
        -1.0,
        0.0,
        0.0,
        1.0,
        2.220446049250313e-16,
        0.0,
        0.0,
        0.0,
        0.0,
        1.0
      ],
      "name": "Sketchfab_model"
    },
    {
      "children": [
        2
      ],
      "matrix": [
        1.0,
        0.0,
        0.0,
        0.0,
        0.0,
        0.0,
        1.0,
        0.0,
        0.0,
        -1.0,
        0.0,
        0.0,
        0.0,
        0.0,
        0.0,
        1.0
      ],
      "name": "model.fbx"
    },
    {
      "children": [
        3
      ],
      "name": "RootNode"
    },
    {
      "children": [
        4,
        5
      ],
      "matrix": [
        1.0,
        0.0,
        0.0,
        0.0,
        0.0,
        2.220446049250313e-16,
        -1.0,
        0.0,
        0.0,
        1.0,
        2.220446049250313e-16,
        0.0,
        0.0,
        0.0,
        0.0,
        1.0
      ],
      "name": "model"
    },
    {
      "mesh": 0,
      "name": "model_tex_u1_v1_0"
    },
    {
      "mesh": 1,
      "name": "model_tex_u1_v1_0"
    }
  ],
  "samplers": [
    {
      "magFilter": 9729,
      "minFilter": 9987,
      "wrapS": 10497,
      "wrapT": 10497
    }
  ],
  "scene": 0,
  "scenes": [
    {
      "name": "Sketchfab_Scene",
      "nodes": [
        0
      ]
    }
  ],
  "textures": [
    {
      "sampler": 0,
      "source": 0
    }
  ]
}
